<svg xmlns="http://www.w3.org/2000/svg" viewBox="0 0 16 16" id="Book-4-Fill--Streamline-Mingcute-Fill" height="16" width="16">
  <desc>
    Book 4 Fill Streamline Icon: https://streamlinehq.com
  </desc>
  <g fill="none" fill-rule="evenodd">
    <path d="M16 0v16H0V0h16ZM8.395333333333333 15.505333333333333l-0.007333333333333332 0.0013333333333333333 -0.047333333333333324 0.023333333333333334 -0.013333333333333332 0.0026666666666666666 -0.009333333333333332 -0.0026666666666666666 -0.047333333333333324 -0.023333333333333334c-0.006666666666666666 -0.0026666666666666666 -0.012666666666666666 -0.0006666666666666666 -0.016 0.003333333333333333l-0.0026666666666666666 0.006666666666666666 -0.011333333333333334 0.2853333333333333 0.003333333333333333 0.013333333333333332 0.006666666666666666 0.008666666666666666 0.06933333333333333 0.049333333333333326 0.009999999999999998 0.0026666666666666666 0.008 -0.0026666666666666666 0.06933333333333333 -0.049333333333333326 0.008 -0.010666666666666666 0.0026666666666666666 -0.011333333333333334 -0.011333333333333334 -0.2846666666666666c-0.0013333333333333333 -0.006666666666666666 -0.005999999999999999 -0.011333333333333334 -0.011333333333333334 -0.011999999999999999Zm0.17666666666666667 -0.07533333333333334 -0.008666666666666666 0.0013333333333333333 -0.12333333333333332 0.062 -0.006666666666666666 0.006666666666666666 -0.002 0.007333333333333332 0.011999999999999999 0.2866666666666666 0.003333333333333333 0.008 0.005333333333333333 0.004666666666666666 0.134 0.062c0.008 0.0026666666666666666 0.015333333333333332 0 0.019333333333333334 -0.005333333333333333l0.0026666666666666666 -0.009333333333333332 -0.02266666666666667 -0.4093333333333333c-0.002 -0.008 -0.006666666666666666 -0.013333333333333332 -0.013333333333333332 -0.014666666666666665Zm-0.4766666666666666 0.0013333333333333333a0.015333333333333332 0.015333333333333332 0 0 0 -0.018 0.004l-0.004 0.009333333333333332 -0.02266666666666667 0.4093333333333333c0 0.008 0.004666666666666666 0.013333333333333332 0.011333333333333334 0.016l0.009999999999999998 -0.0013333333333333333 0.134 -0.062 0.006666666666666666 -0.005333333333333333 0.0026666666666666666 -0.007333333333333332 0.011333333333333334 -0.2866666666666666 -0.002 -0.008 -0.006666666666666666 -0.006666666666666666 -0.12266666666666666 -0.06133333333333333Z" stroke-width="0.6667"></path>
    <path fill="#000000" d="m9.408 2.496 4.962666666666666 2.5073333333333334a1.0066666666666666 1.0066666666666666 0 0 1 0.5086666666666666 1.1833333333333331c-0.26 0.8873333333333333 -0.2313333333333333 1.2599999999999998 -0.06133333333333333 1.6806666666666665 0.17133333333333334 0.42533333333333334 0.05266666666666667 0.966 -0.3913333333333333 1.2466666666666666l-6.856 4.34c-0.28733333333333333 0.182 -0.6533333333333333 0.21 -0.9713333333333334 0.05466666666666667l-2.5599999999999996 -1.2633333333333332 -1.0693333333333332 -0.5366666666666666 -0.7599999999999999 -0.38799999999999996 -0.46399999999999997 -0.24333333333333332 -0.24 -0.13066666666666665 -0.174 -0.09999999999999999C0.6519999999999999 10.436666666666666 0.44 9.603333333333332 0.444 8.966666666666665c0.0026666666666666666 -0.6473333333333333 0.22533333333333333 -1.456 0.8433333333333333 -1.9l0.19999999999999998 -0.13799999999999998 0.572 -0.374 1.3633333333333333 -0.8706666666666667 5.005333333333333 -3.143333333333333a0.9993333333333334 0.9993333333333334 0 0 1 0.98 -0.044Zm3.9473333333333334 4.629333333333333 -5.782 3.66 -0.072 0.041999999999999996 -0.074 0.034666666666666665c-0.07333333333333333 0.27199999999999996 -0.09866666666666665 0.46733333333333327 -0.09599999999999999 0.6486666666666666 0.0013333333333333333 0.108 0.013333333333333332 0.21866666666666668 0.03666666666666667 0.3446666666666667l0.028 0.13133333333333333 6.0986666666666665 -3.86 -0.047999999999999994 -0.16599999999999998a2.8466666666666662 2.8466666666666662 0 0 1 -0.092 -0.6639999999999999l0.0006666666666666666 -0.17133333333333334ZM1.8666666666666665 8.452a1.5039999999999998 1.5039999999999998 0 0 0 -0.08933333333333333 0.52c-0.002 0.448 0.15799999999999997 0.6819999999999999 0.24333333333333332 0.7333333333333334l0.2053333333333333 0.11666666666666665 0.41733333333333333 0.222 1.18 0.602L6.006666666666666 11.733333333333334a3.0559999999999996 3.0559999999999996 0 0 1 -0.009333333333333332 -0.20199999999999999c-0.004 -0.24666666666666665 0.023333333333333334 -0.48866666666666664 0.076 -0.742l0.04466666666666667 -0.19199999999999998L1.8666666666666665 8.452Zm7.442666666666666 -3.8426666666666667a0.6666666666666666 0.6666666666666666 0 0 0 -0.6853333333333333 1.1413333333333333l0.06666666666666667 0.039999999999999994 1.4 0.7333333333333334a0.6666666666666666 0.6666666666666666 0 0 0 0.6853333333333333 -1.1413333333333333l-0.06666666666666667 -0.039999999999999994 -1.4 -0.7333333333333334Z" stroke-width="0.6667"></path>
  </g>
</svg>