<svg xmlns="http://www.w3.org/2000/svg" viewBox="0 0 16 16" id="Candle-Fill--Streamline-Mingcute-Fill" height="16" width="16">
  <desc>
    Candle Fill Streamline Icon: https://streamlinehq.com
  </desc>
  <g fill="none" fill-rule="evenodd">
    <path d="M16 0v16H0V0zM8.395333333333333 15.505333333333333l-0.007333333333333332 0.0013333333333333333 -0.047333333333333324 0.023333333333333334 -0.013333333333333332 0.0026666666666666666 -0.009333333333333332 -0.0026666666666666666 -0.047333333333333324 -0.023333333333333334c-0.006666666666666666 -0.0026666666666666666 -0.012666666666666666 -0.0006666666666666666 -0.016 0.003333333333333333l-0.0026666666666666666 0.006666666666666666 -0.011333333333333334 0.2853333333333333 0.003333333333333333 0.013333333333333332 0.006666666666666666 0.008666666666666666 0.06933333333333333 0.049333333333333326 0.009999999999999998 0.0026666666666666666 0.008 -0.0026666666666666666 0.06933333333333333 -0.049333333333333326 0.008 -0.010666666666666666 0.0026666666666666666 -0.011333333333333334 -0.011333333333333334 -0.2846666666666666c-0.0013333333333333333 -0.006666666666666666 -0.005999999999999999 -0.011333333333333334 -0.011333333333333334 -0.011999999999999999m0.17666666666666667 -0.07533333333333334 -0.008666666666666666 0.0013333333333333333 -0.12333333333333332 0.062 -0.006666666666666666 0.006666666666666666 -0.002 0.007333333333333332 0.011999999999999999 0.2866666666666666 0.003333333333333333 0.008 0.005333333333333333 0.004666666666666666 0.134 0.062c0.008 0.0026666666666666666 0.015333333333333332 0 0.019333333333333334 -0.005333333333333333l0.0026666666666666666 -0.009333333333333332 -0.02266666666666667 -0.4093333333333333c-0.002 -0.008 -0.006666666666666666 -0.013333333333333332 -0.013333333333333332 -0.014666666666666665m-0.4766666666666666 0.0013333333333333333a0.015333333333333332 0.015333333333333332 0 0 0 -0.018 0.004l-0.004 0.009333333333333332 -0.02266666666666667 0.4093333333333333c0 0.008 0.004666666666666666 0.013333333333333332 0.011333333333333334 0.016l0.009999999999999998 -0.0013333333333333333 0.134 -0.062 0.006666666666666666 -0.005333333333333333 0.0026666666666666666 -0.007333333333333332 0.011333333333333334 -0.2866666666666666 -0.002 -0.008 -0.006666666666666666 -0.006666666666666666z" stroke-width="0.6667"></path>
    <path fill="#000000" d="M8.038666666666666 1.3866666666666667a0.6666666666666666 0.6666666666666666 0 0 0 -0.9213333333333332 0.5106666666666666c-0.03133333333333333 0.20466666666666666 -0.08266666666666667 0.33066666666666666 -0.144 0.43133333333333335 -0.06666666666666667 0.11 -0.16666666666666666 0.22266666666666668 -0.3426666666666667 0.3866666666666666 -0.3466666666666667 0.3213333333333333 -0.5579999999999999 0.706 -0.6146666666666667 1.1206666666666667a1.7699999999999998 1.7699999999999998 0 0 0 0.21733333333333332 1.1033333333333333C6.561333333333334 5.530666666666666 7.226666666666667 6 7.935333333333333 6 8.856666666666666 6 10 5.356 10 4.129333333333333c0 -0.6286666666666666 -0.2813333333333333 -1.2193333333333332 -0.6306666666666666 -1.6746666666666665 -0.352 -0.458 -0.8286666666666667 -0.8526666666666666 -1.3306666666666667 -1.0673333333333332M6 6.666666666666666a1.3333333333333333 1.3333333333333333 0 0 0 -1.3333333333333333 1.3333333333333333v5.333333333333333a1.3333333333333333 1.3333333333333333 0 0 0 1.3333333333333333 1.3333333333333333h4a1.3333333333333333 1.3333333333333333 0 0 0 1.3333333333333333 -1.3333333333333333v-5.333333333333333a1.3333333333333333 1.3333333333333333 0 0 0 -1.3333333333333333 -1.3333333333333333z" stroke-width="0.6667"></path>
  </g>
</svg>