<svg xmlns="http://www.w3.org/2000/svg" viewBox="0 0 16 16" id="Dish-Cover-Fill--Streamline-Mingcute-Fill" height="16" width="16">
  <desc>
    Dish Cover Fill Streamline Icon: https://streamlinehq.com
  </desc>
  <g fill="none" fill-rule="evenodd">
    <path d="m16 0 0 16 -16 0L0 0l16 0ZM8.395666666666667 15.505199999999999l-0.0077333333333333325 0.0011333333333333332 -0.047333333333333324 0.023666666666666662 -0.012666666666666666 0.0024666666666666665 -0.010133333333333333 -0.0024666666666666665 -0.047333333333333324 -0.023666666666666662c-0.0066 -0.0020666666666666663 -0.012466666666666668 -0.0003333333333333333 -0.015733333333333332 0.0036l-0.0027333333333333333 0.007266666666666666 -0.0114 0.28486666666666666 0.003333333333333333 0.013600000000000001 0.007333333333333332 0.008133333333333333 0.06906666666666667 0.049333333333333326 0.009866666666666666 0.0026 0.007866666666666666 -0.0026 0.06906666666666667 -0.049333333333333326 0.0084 -0.010666666666666666 0.0022666666666666664 -0.011066666666666666 -0.0114 -0.28486666666666666c-0.0013333333333333333 -0.0067333333333333325 -0.005733333333333333 -0.011 -0.010733333333333333 -0.011999999999999999Zm0.1766 -0.075 -0.009266666666666666 0.0013333333333333333 -0.12313333333333333 0.061599999999999995 -0.0066 0.0068000000000000005 -0.0018 0.007466666666666667 0.011933333333333332 0.28633333333333333 0.0031999999999999997 0.008533333333333334 0.005666666666666667 0.004733333333333333 0.13393333333333332 0.0618c0.008066666666666666 0.0024666666666666665 0.015266666666666666 -0.00013333333333333334 0.019 -0.005333333333333333l0.0026666666666666666 -0.009333333333333332 -0.02273333333333333 -0.4098c-0.0015999999999999999 -0.007933333333333334 -0.006866666666666667 -0.013 -0.012866666666666667 -0.014133333333333333Zm-0.4769333333333333 0.0013333333333333333c-0.006533333333333333 -0.0032666666666666664 -0.013866666666666666 -0.0013333333333333333 -0.018266666666666667 0.003533333333333333l-0.0038 0.009266666666666666 -0.02273333333333333 0.4098c-0.00046666666666666666 0.007666666666666666 0.004666666666666666 0.0138 0.011199999999999998 0.0156l0.010466666666666666 -0.0009333333333333333 0.13393333333333332 -0.0618 0.006266666666666667 -0.005399999999999999 0.0026 -0.007866666666666666 0.011933333333333332 -0.28633333333333333 -0.0021333333333333334 -0.0084 -0.006266666666666667 -0.005866666666666667 -0.12319999999999999 -0.061599999999999995Z" stroke-width="0.6667"></path>
    <path fill="#000000" d="M6 2.6666666666666665c0 -0.36818666666666666 0.29847999999999997 -0.6666666666666666 0.6666666666666666 -0.6666666666666666l2.6666666666666665 0c0.36819999999999997 0 0.6666666666666666 0.29847999999999997 0.6666666666666666 0.6666666666666666s-0.29846666666666666 0.6666666666666666 -0.6666666666666666 0.6666666666666666l-0.6666666666666666 0 0 0.6896733333333334c3.626666666666667 0.32724666666666663 6.0069333333333335 4.088126666666666 4.619 7.557926666666667C13.184399999999998 11.834 12.939266666666665 12 12.666666666666666 12L3.333333333333333 12c-0.27259999999999995 0 -0.51774 -0.16599999999999998 -0.6189866666666666 -0.4190666666666667C1.3264266666666666 8.111133333333333 3.706666666666666 4.350253333333333 7.333333333333333 4.023006666666666L7.333333333333333 3.333333333333333l-0.6666666666666666 0c-0.36818666666666666 0 -0.6666666666666666 -0.29847999999999997 -0.6666666666666666 -0.6666666666666666ZM2 13.333333333333332c0 -0.36819999999999997 0.29847999999999997 -0.6666666666666666 0.6666666666666666 -0.6666666666666666l10.666666666666666 0c0.36819999999999997 0 0.6666666666666666 0.29846666666666666 0.6666666666666666 0.6666666666666666s-0.29846666666666666 0.6666666666666666 -0.6666666666666666 0.6666666666666666L2.6666666666666665 14c-0.36818666666666666 0 -0.6666666666666666 -0.29846666666666666 -0.6666666666666666 -0.6666666666666666Z" stroke-width="0.6667"></path>
  </g>
</svg>