<svg xmlns="http://www.w3.org/2000/svg" viewBox="0 0 16 16" id="Flower-4-Fill--Streamline-Mingcute-Fill" height="16" width="16">
  <desc>
    Flower 4 Fill Streamline Icon: https://streamlinehq.com
  </desc>
  <g fill="none" fill-rule="nonzero">
    <path d="M16 0v16H0V0h16ZM8.395999999999999 15.505333333333333l-0.008 0.0013333333333333333 -0.047333333333333324 0.023333333333333334 -0.013333333333333332 0.0026666666666666666 -0.009333333333333332 -0.0026666666666666666 -0.047333333333333324 -0.023999999999999997c-0.006666666666666666 -0.002 -0.012666666666666666 0 -0.016 0.004l-0.0026666666666666666 0.006666666666666666 -0.011333333333333334 0.2853333333333333 0.003333333333333333 0.013333333333333332 0.006666666666666666 0.008666666666666666 0.06933333333333333 0.049333333333333326 0.009999999999999998 0.0026666666666666666 0.008 -0.0026666666666666666 0.06933333333333333 -0.049333333333333326 0.008 -0.010666666666666666 0.0026666666666666666 -0.011333333333333334 -0.011333333333333334 -0.2846666666666666c-0.0013333333333333333 -0.006666666666666666 -0.005999999999999999 -0.011333333333333334 -0.010666666666666666 -0.011999999999999999Zm0.176 -0.07533333333333334 -0.009333333333333332 0.0013333333333333333 -0.12266666666666666 0.062 -0.006666666666666666 0.006666666666666666 -0.002 0.007333333333333332 0.011999999999999999 0.2866666666666666 0.003333333333333333 0.008 0.005333333333333333 0.005333333333333333 0.134 0.06133333333333333c0.008 0.0026666666666666666 0.015333333333333332 0 0.019333333333333334 -0.005333333333333333l0.0026666666666666666 -0.009333333333333332 -0.02266666666666667 -0.4093333333333333c-0.002 -0.008 -0.006666666666666666 -0.013333333333333332 -0.013333333333333332 -0.014666666666666665Zm-0.4766666666666666 0.0013333333333333333a0.015333333333333332 0.015333333333333332 0 0 0 -0.018 0.004l-0.004 0.009333333333333332 -0.02266666666666667 0.4093333333333333c0 0.008 0.004666666666666666 0.013333333333333332 0.011333333333333334 0.016l0.009999999999999998 -0.0013333333333333333 0.134 -0.062 0.006666666666666666 -0.005333333333333333 0.002 -0.007333333333333332 0.011999999999999999 -0.2866666666666666 -0.002 -0.008 -0.006666666666666666 -0.006666666666666666 -0.12266666666666666 -0.06133333333333333Z" stroke-width="0.6667"></path>
    <path fill="#000000" d="M6.999333333333333 1.734C7.26 1.5326666666666666 7.613333333333333 1.3333333333333333 8 1.3333333333333333c0.3866666666666666 0 0.74 0.1993333333333333 1.0006666666666666 0.4006666666666666 0.2826666666666666 0.218 0.5573333333333332 0.5153333333333333 0.798 0.8633333333333333 0.122 0.17666666666666667 0.238 0.37133333333333335 0.344 0.58a4.736666666666666 4.736666666666666 0 0 1 1.9633333333333332 -0.524C12.857999999999999 2.618 13.333333333333332 3.2506666666666666 13.333333333333332 3.865333333333333V5.333333333333333a5.334 5.334 0 0 1 -4.666666666666666 5.292v2.0466666666666664c0.7173333333333334 -0.446 1.7746666666666666 -0.9693333333333333 3.1719999999999997 -1.3186666666666667a0.6666666666666666 0.6666666666666666 0 1 1 0.3233333333333333 1.2933333333333332c-2.1453333333333333 0.5366666666666666 -3.357333333333333 1.5266666666666666 -3.6333333333333333 1.7719999999999998 -0.15533333333333332 0.13866666666666666 -0.30933333333333335 0.248 -0.5286666666666666 0.248 -0.21666666666666667 0 -0.3706666666666667 -0.10666666666666666 -0.5246666666666666 -0.24466666666666664 -0.2673333333333333 -0.23866666666666664 -1.48 -1.236 -3.6373333333333333 -1.7753333333333332a0.6666666666666666 0.6666666666666666 0 1 1 0.32399999999999995 -1.2933333333333332c1.3966666666666667 0.34933333333333333 2.453333333333333 0.8733333333333333 3.171333333333333 1.3186666666666667v-2.0466666666666664A5.334 5.334 0 0 1 2.6666666666666665 5.333333333333333V3.856c0 -0.606 0.46133333333333326 -1.2333333333333334 1.2046666666666666 -1.2133333333333334 0.4893333333333333 0.013333333333333332 1.236 0.112 2 0.5086666666666666 0.10133333333333333 -0.19866666666666666 0.21333333333333332 -0.3846666666666666 0.32999999999999996 -0.5533333333333332 0.24 -0.3486666666666667 0.5153333333333333 -0.6466666666666666 0.798 -0.864Z" stroke-width="0.6667"></path>
  </g>
</svg>