<svg xmlns="http://www.w3.org/2000/svg" viewBox="0 0 16 16" id="Video-Camera-Fill--Streamline-Mingcute-Fill" height="16" width="16">
  <desc>
    Video Camera Fill Streamline Icon: https://streamlinehq.com
  </desc>
  <g fill="none" fill-rule="evenodd">
    <path d="m16 0 0 16 -16 0L0 0l16 0ZM8.395666666666667 15.505199999999999l-0.0077333333333333325 0.0011333333333333332 -0.047333333333333324 0.023666666666666662 -0.012666666666666666 0.0024666666666666665 -0.010133333333333333 -0.0024666666666666665 -0.047333333333333324 -0.023666666666666662c-0.0066 -0.0020666666666666663 -0.012466666666666668 -0.0003333333333333333 -0.015733333333333332 0.0036l-0.0027333333333333333 0.007266666666666666 -0.0114 0.28486666666666666 0.003333333333333333 0.013600000000000001 0.007333333333333332 0.008133333333333333 0.06906666666666667 0.049333333333333326 0.009866666666666666 0.0026 0.007866666666666666 -0.0026 0.06906666666666667 -0.049333333333333326 0.0084 -0.010666666666666666 0.0022666666666666664 -0.011066666666666666 -0.0114 -0.28486666666666666c-0.0013333333333333333 -0.0067333333333333325 -0.005733333333333333 -0.011 -0.010733333333333333 -0.011999999999999999Zm0.1766 -0.075 -0.009266666666666666 0.0013333333333333333 -0.12313333333333333 0.061599999999999995 -0.0066 0.0068000000000000005 -0.0018 0.007466666666666667 0.011933333333333332 0.28633333333333333 0.0031999999999999997 0.008533333333333334 0.005666666666666667 0.004733333333333333 0.13393333333333332 0.0618c0.008066666666666666 0.0024666666666666665 0.015266666666666666 -0.00013333333333333334 0.019 -0.005333333333333333l0.0026666666666666666 -0.009333333333333332 -0.02273333333333333 -0.4098c-0.0015999999999999999 -0.007933333333333334 -0.006866666666666667 -0.013 -0.012866666666666667 -0.014133333333333333Zm-0.4769333333333333 0.0013333333333333333c-0.006533333333333333 -0.0032666666666666664 -0.013866666666666666 -0.0013333333333333333 -0.018266666666666667 0.003533333333333333l-0.0038 0.009266666666666666 -0.02273333333333333 0.4098c-0.00046666666666666666 0.007666666666666666 0.004666666666666666 0.0138 0.011199999999999998 0.0156l0.010466666666666666 -0.0009333333333333333 0.13393333333333332 -0.0618 0.006266666666666667 -0.005399999999999999 0.0026 -0.007866666666666666 0.011933333333333332 -0.28633333333333333 -0.0021333333333333334 -0.0084 -0.006266666666666667 -0.005866666666666667 -0.12319999999999999 -0.061599999999999995Z" stroke-width="0.6667"></path>
    <path fill="#000000" d="M10.666666666666666 4.666666666666666c0 0.4947933333333333 -0.13473333333333332 0.9581066666666667 -0.3696 1.3552533333333332C11.2608 6.165426666666666 12 6.9963999999999995 12 8l0 0.13946666666666666 1.1421999999999999 -0.7035999999999999c0.6661999999999999 -0.4104 1.5244666666666666 0.06886666666666666 1.5244666666666666 0.8513999999999999l0 3.425133333333333c0 0.7825333333333333 -0.8582666666666667 1.2618666666666667 -1.5244666666666666 0.8513999999999999L12 11.860199999999999 12 12c0 1.1046 -0.8954 2 -2 2L3.333333333333333 14c-1.1045666666666665 0 -2 -0.8954 -2 -2l0 -4c0 -0.7525333333333333 0.4156066666666667 -1.407973333333333 1.0298066666666665 -1.7493400000000001C2.1332 5.889186666666667 2 5.460146666666667 2 5 2 3.711333333333333 3.0446666666666666 2.6666666666666665 4.333333333333333 2.6666666666666665c0.5503866666666666 0 1.05626 0.19055999999999998 1.4552466666666666 0.5093C6.267779999999999 2.4664866666666665 7.0794 2 8 2c1.4727333333333332 0 2.6666666666666665 1.1939066666666664 2.6666666666666665 2.6666666666666665Zm-2.6666666666666665 -1.3333333333333333c-0.7363999999999999 0 -1.3333333333333333 0.5969533333333332 -1.3333333333333333 1.3333333333333333s0.5969333333333333 1.3333333333333333 1.3333333333333333 1.3333333333333333 1.3333333333333333 -0.5969533333333332 1.3333333333333333 -1.3333333333333333 -0.5969333333333333 -1.3333333333333333 -1.3333333333333333 -1.3333333333333333ZM4.333333333333333 6C4.885619999999999 6 5.333333333333333 5.552286666666667 5.333333333333333 5S4.885619999999999 4 4.333333333333333 4 3.333333333333333 4.447713333333333 3.333333333333333 5 3.7810466666666667 6 4.333333333333333 6Z" stroke-width="0.6667"></path>
  </g>
</svg>